<?xml version="1.0" encoding="utf-8"?>
<!-- Generator: Adobe Illustrator 24.0.2, SVG Export Plug-In . SVG Version: 6.00 Build 0)  -->
<svg version="1.1" id="logo_icon" xmlns="http://www.w3.org/2000/svg" xmlns:xlink="http://www.w3.org/1999/xlink" x="0px" y="0px"
	 viewBox="0 0 137 28" style="enable-background:new 0 0 137 28;" xml:space="preserve">
<style type="text/css">
	.st0{fill-rule:evenodd;clip-rule:evenodd;fill:#65E496;}
	.st1{enable-background:new    ;}
	.st2{fill:#FEFEFE;}
	.st3{fill:#65E496;}
	.st4{fill-rule:evenodd;clip-rule:evenodd;fill:#44444F;}
</style>
<path id="Rectangle_10_copy_3" class="st0" d="M28,28L0,0h28V28z"/>
<g class="st1">
	<path class="st2" d="M49.9,4.3c2.3,0,4.2,0.5,5.5,1.4s2,2.3,2,4.1c0,0.9-0.2,1.7-0.7,2.5c-0.5,0.7-1.2,1.3-2.1,1.6
		c1.2,0.3,2.1,0.8,2.7,1.6c0.6,0.8,0.9,1.8,0.9,2.9c0,1.9-0.6,3.3-1.9,4.3s-3,1.5-5.3,1.5H41v-2.4l2.1-0.4V7.1L41,6.7V4.3h2.1H49.9z
		 M47.2,12.6H50c1.1,0,1.9-0.2,2.5-0.7s0.9-1.1,0.9-1.9c0-0.9-0.3-1.6-0.9-2c-0.6-0.4-1.4-0.7-2.6-0.7h-2.7V12.6z M47.2,15.4v5.7
		h3.7c1.1,0,1.9-0.2,2.4-0.7c0.6-0.5,0.8-1.1,0.8-2c0-1-0.2-1.7-0.7-2.2c-0.5-0.5-1.2-0.8-2.2-0.8H47.2z"/>
	<path class="st2" d="M67.6,4.3v2.4l-2.1,0.4v10.4c0,1.3,0.4,2.3,1.1,2.9c0.7,0.7,1.7,1,2.9,1c1.2,0,2.2-0.3,2.9-1s1.1-1.6,1.1-3
		V7.1l-2.1-0.4V4.3h8.2v2.4l-2.1,0.4v10.4c0,2.2-0.7,4-2.2,5.2c-1.5,1.2-3.4,1.8-5.8,1.8c-2.4,0-4.3-0.6-5.8-1.8s-2.2-2.9-2.2-5.2
		V7.1l-2.1-0.4V4.3h2.1h4H67.6z"/>
	<path class="st2" d="M80.7,21.8l2.1-0.4V7.1l-2.1-0.4V4.3h8.1v2.4l-2,0.4v5.3h1.7l3.8-5.6l-1.2-0.2V4.3h7.9v2.4l-2.2,0.4L92,13.6
		l5.5,7.9l2,0.3v2.4h-7.9v-2.4l1.2-0.2L89,15.9h-2.2v5.5l2,0.4v2.4h-8.1V21.8z"/>
</g>
<g class="st1">
	<path class="st3" d="M113.6,15.4h-6.7v5.7h6.4l0.2-2.4h3v5.4h-15.8v-2.4l2.1-0.4V7.1l-2.1-0.4V4.3h2.1h13.6v5.5h-3.1l-0.2-2.4h-6.4
		v5h6.7V15.4z"/>
	<path class="st3" d="M131.5,15.4h-6.7v5.7h6.4l0.2-2.4h3v5.4h-15.8v-2.4l2.1-0.4V7.1l-2.1-0.4V4.3h2.1h13.6v5.5h-3.1l-0.2-2.4h-6.4
		v5h6.7V15.4z"/>
</g>
<path class="st4" d="M28,0L0,28V0H28z"/>
</svg>
